<svg xmlns="http://www.w3.org/2000/svg" width="800" height="500" viewBox="0 0 800 500">
  <defs>
    <style>
      text { font-family: system-ui, -apple-system, sans-serif; }
    </style>
  </defs>

  <!-- Background -->
  <rect width="800" height="500" fill="#0f172a" rx="12"/>

  <!-- Nav bar -->
  <rect x="0" y="0" width="800" height="56" fill="#1e293b" rx="12"/>
  <rect x="0" y="44" width="800" height="12" fill="#1e293b"/>
  <line x1="0" y1="56" x2="800" y2="56" stroke="#334155" stroke-width="1"/>

  <!-- Logo -->
  <text x="24" y="35" fill="#e2e8f0" font-size="16" font-weight="700">pam-pocketid</text>

  <!-- Nav tabs -->
  <text x="226" y="31" fill="#94a3b8" font-size="14" text-anchor="middle">Sessions</text>
  <text x="315" y="31" fill="#94a3b8" font-size="14" text-anchor="middle">History</text>

  <!-- Hosts (active) -->
  <rect x="355" y="0" width="80" height="55" fill="transparent"/>
  <text x="395" y="31" fill="#60a5fa" font-size="14" font-weight="600" text-anchor="middle">Hosts</text>
  <line x1="355" y1="54" x2="435" y2="54" stroke="#60a5fa" stroke-width="2"/>

  <text x="472" y="31" fill="#94a3b8" font-size="14" text-anchor="middle">Info</text>

  <!-- Profile avatar -->
  <circle cx="765" cy="28" r="18" fill="#334155"/>
  <text x="765" y="33" fill="#e2e8f0" font-size="13" font-weight="600" text-anchor="middle">R</text>

  <!-- ===== PAGE HEADER ===== -->
  <text x="24" y="88" fill="#e2e8f0" font-size="15" font-weight="700">Hosts</text>
  <text x="24" y="108" fill="#94a3b8" font-size="13">Hosts registered with per-host secrets. Manage grace sessions and elevate access.</text>

  <!-- ===== HOST CARD 1: web-prod-1 — Active session ===== -->
  <rect x="24" y="124" width="752" height="90" fill="#1e293b" rx="12" stroke="#334155" stroke-width="1"/>

  <!-- Status indicator -->
  <circle cx="52" cy="169" r="7" fill="#34d399"/>

  <!-- Hostname -->
  <text x="70" y="160" fill="#e2e8f0" font-size="16" font-weight="700">web-prod-1</text>
  <text x="70" y="178" fill="#34d399" font-size="12" font-weight="600">Active — 7h 23m remaining</text>

  <!-- Session badge -->
  <rect x="70" y="188" width="88" height="18" fill="#14532d" rx="4"/>
  <text x="114" y="200" fill="#34d399" font-size="10" font-weight="600" text-anchor="middle">Grace session</text>

  <!-- Revoke button -->
  <rect x="660" y="154" width="96" height="32" fill="#7f1d1d" rx="8"/>
  <text x="708" y="174" fill="#fca5a5" font-size="13" font-weight="600" text-anchor="middle">Revoke</text>

  <!-- ===== HOST CARD 2: app-server — No session ===== -->
  <rect x="24" y="226" width="752" height="100" fill="#1e293b" rx="12" stroke="#334155" stroke-width="1"/>

  <!-- Status indicator -->
  <circle cx="52" cy="276" r="7" fill="#475569"/>

  <!-- Hostname -->
  <text x="70" y="267" fill="#e2e8f0" font-size="16" font-weight="700">app-server</text>
  <text x="70" y="285" fill="#94a3b8" font-size="12">No active session</text>

  <!-- Duration dropdown -->
  <rect x="430" y="260" width="110" height="32" fill="#0f172a" rx="8" stroke="#334155" stroke-width="1"/>
  <text x="472" y="280" fill="#e2e8f0" font-size="12" text-anchor="middle">8 hours ▾</text>

  <!-- Elevate button -->
  <rect x="550" y="260" width="84" height="32" fill="#1d4ed8" rx="8"/>
  <text x="592" y="280" fill="#ffffff" font-size="13" font-weight="600" text-anchor="middle">Elevate</text>

  <!-- Duration options hint -->
  <text x="70" y="308" fill="#64748b" font-size="11">Select duration and click Elevate to start a sudo session</text>

  <!-- ===== HOST CARD 3: db-primary — Escrowed ===== -->
  <rect x="24" y="338" width="752" height="100" fill="#1e293b" rx="12" stroke="#334155" stroke-width="1"/>

  <!-- Status indicator -->
  <circle cx="52" cy="378" r="7" fill="#475569"/>

  <!-- Hostname -->
  <text x="70" y="369" fill="#e2e8f0" font-size="16" font-weight="700">db-primary</text>
  <text x="70" y="387" fill="#94a3b8" font-size="12">No active session</text>

  <!-- Escrow badge -->
  <rect x="70" y="396" width="100" height="18" fill="#1e1a3f" rx="4" stroke="#4c1d95" stroke-width="1"/>
  <text x="120" y="408" fill="#a78bfa" font-size="10" font-weight="600" text-anchor="middle">Escrowed secret</text>

  <!-- View in 1Password link -->
  <text x="430" y="378" fill="#60a5fa" font-size="13" text-decoration="underline">View in 1Password</text>

  <!-- Rotate button -->
  <rect x="600" y="362" width="80" height="32" fill="#4c1d95" rx="8"/>
  <text x="640" y="382" fill="#c4b5fd" font-size="13" font-weight="600" text-anchor="middle">Rotate</text>

  <!-- ===== ROTATE ALL BUTTON ===== -->
  <rect x="24" y="456" width="108" height="34" fill="#4c1d95" rx="8"/>
  <text x="78" y="477" fill="#c4b5fd" font-size="13" font-weight="600" text-anchor="middle">Rotate All</text>

  <!-- Hint text -->
  <text x="144" y="477" fill="#64748b" font-size="12">Rotate breakglass secrets for all escrowed hosts</text>
</svg>
