<svg xmlns="http://www.w3.org/2000/svg" width="800" height="620" viewBox="0 0 800 620">
  <defs>
    <style>
      text { font-family: system-ui, -apple-system, sans-serif; }
    </style>
  </defs>

  <!-- Background -->
  <rect width="800" height="620" fill="#0f172a" rx="12"/>

  <!-- Nav bar -->
  <rect x="0" y="0" width="800" height="56" fill="#1e293b" rx="12"/>
  <rect x="0" y="44" width="800" height="12" fill="#1e293b"/>
  <!-- Nav border -->
  <line x1="0" y1="56" x2="800" y2="56" stroke="#334155" stroke-width="1"/>

  <!-- Logo / title -->
  <text x="24" y="35" fill="#e2e8f0" font-size="16" font-weight="700">pam-pocketid</text>

  <!-- Nav tabs -->
  <!-- Sessions (active) -->
  <rect x="176" y="0" width="100" height="55" fill="transparent"/>
  <text x="226" y="31" fill="#60a5fa" font-size="14" font-weight="600" text-anchor="middle">Sessions</text>
  <line x1="176" y1="54" x2="276" y2="54" stroke="#60a5fa" stroke-width="2"/>

  <!-- History -->
  <text x="310" y="31" fill="#94a3b8" font-size="14" text-anchor="middle">History</text>

  <!-- Hosts -->
  <text x="394" y="31" fill="#94a3b8" font-size="14" text-anchor="middle">Hosts</text>

  <!-- Info -->
  <text x="466" y="31" fill="#94a3b8" font-size="14" text-anchor="middle">Info</text>

  <!-- Profile avatar -->
  <circle cx="765" cy="28" r="18" fill="#334155"/>
  <text x="765" y="33" fill="#e2e8f0" font-size="13" font-weight="600" text-anchor="middle">R</text>

  <!-- ===== PENDING REQUESTS SECTION ===== -->
  <text x="24" y="88" fill="#e2e8f0" font-size="15" font-weight="700">Pending Requests</text>

  <!-- Approve All / Reject All buttons (top right of section) -->
  <rect x="574" y="70" width="96" height="30" fill="#1d4ed8" rx="8"/>
  <text x="622" y="90" fill="#ffffff" font-size="12" font-weight="600" text-anchor="middle">Approve All</text>
  <rect x="678" y="70" width="90" height="30" fill="#7f1d1d" rx="8"/>
  <text x="723" y="90" fill="#fca5a5" font-size="12" font-weight="600" text-anchor="middle">Reject All</text>

  <!-- Challenge card 1 -->
  <rect x="24" y="102" width="752" height="90" fill="#1e293b" rx="12" stroke="#334155" stroke-width="1"/>
  <!-- Hostname -->
  <text x="44" y="130" fill="#94a3b8" font-size="11">HOST</text>
  <text x="44" y="150" fill="#e2e8f0" font-size="15" font-weight="600">docker</text>
  <!-- Code -->
  <text x="220" y="130" fill="#94a3b8" font-size="11">CODE</text>
  <text x="220" y="150" fill="#60a5fa" font-size="15" font-weight="600" font-family="monospace, monospace">ABCDEF-123456</text>
  <!-- Expires -->
  <text x="420" y="130" fill="#94a3b8" font-size="11">EXPIRES IN</text>
  <text x="420" y="150" fill="#fbbf24" font-size="15" font-weight="600">1m 48s</text>
  <!-- Approve / Reject buttons -->
  <rect x="562" y="120" width="88" height="32" fill="#15803d" rx="8"/>
  <text x="606" y="141" fill="#ffffff" font-size="13" font-weight="600" text-anchor="middle">Approve</text>
  <rect x="658" y="120" width="88" height="32" fill="#7f1d1d" rx="8"/>
  <text x="702" y="141" fill="#fca5a5" font-size="13" font-weight="600" text-anchor="middle">Reject</text>

  <!-- Challenge card 2 -->
  <rect x="24" y="202" width="752" height="90" fill="#1e293b" rx="12" stroke="#334155" stroke-width="1"/>
  <text x="44" y="230" fill="#94a3b8" font-size="11">HOST</text>
  <text x="44" y="250" fill="#e2e8f0" font-size="15" font-weight="600">pvemsa2</text>
  <text x="220" y="230" fill="#94a3b8" font-size="11">CODE</text>
  <text x="220" y="250" fill="#60a5fa" font-size="15" font-weight="600" font-family="monospace, monospace">GHIJKL-789012</text>
  <text x="420" y="230" fill="#94a3b8" font-size="11">EXPIRES IN</text>
  <text x="420" y="250" fill="#e2e8f0" font-size="15" font-weight="600">4m 12s</text>
  <rect x="562" y="220" width="88" height="32" fill="#15803d" rx="8"/>
  <text x="606" y="241" fill="#ffffff" font-size="13" font-weight="600" text-anchor="middle">Approve</text>
  <rect x="658" y="220" width="88" height="32" fill="#7f1d1d" rx="8"/>
  <text x="702" y="241" fill="#fca5a5" font-size="13" font-weight="600" text-anchor="middle">Reject</text>

  <!-- ===== ACTIVE SESSIONS SECTION ===== -->
  <text x="24" y="330" fill="#e2e8f0" font-size="15" font-weight="700">Active Sessions</text>

  <!-- Revoke All button -->
  <rect x="690" y="312" width="86" height="30" fill="#7f1d1d" rx="8"/>
  <text x="733" y="332" fill="#fca5a5" font-size="12" font-weight="600" text-anchor="middle">Revoke All</text>

  <!-- Session row 1 -->
  <rect x="24" y="344" width="752" height="72" fill="#1e293b" rx="12" stroke="#334155" stroke-width="1"/>
  <!-- Status dot -->
  <circle cx="52" cy="380" r="6" fill="#34d399"/>
  <text x="70" y="373" fill="#e2e8f0" font-size="14" font-weight="600">docker</text>
  <text x="70" y="391" fill="#34d399" font-size="12">Active — 7h 23m remaining</text>
  <!-- User badge -->
  <rect x="330" y="366" width="68" height="22" fill="#1e3a5f" rx="6"/>
  <text x="364" y="381" fill="#60a5fa" font-size="11" text-anchor="middle">rinseaid</text>
  <!-- Revoke button -->
  <rect x="678" y="364" width="78" height="30" fill="#7f1d1d" rx="8"/>
  <text x="717" y="384" fill="#fca5a5" font-size="12" font-weight="600" text-anchor="middle">Revoke</text>

  <!-- Session row 2 -->
  <rect x="24" y="426" width="752" height="72" fill="#1e293b" rx="12" stroke="#334155" stroke-width="1"/>
  <circle cx="52" cy="462" r="6" fill="#34d399"/>
  <text x="70" y="455" fill="#e2e8f0" font-size="14" font-weight="600">plex</text>
  <text x="70" y="473" fill="#34d399" font-size="12">Active — 2h 51m remaining</text>
  <rect x="330" y="448" width="68" height="22" fill="#1e3a5f" rx="6"/>
  <text x="364" y="463" fill="#60a5fa" font-size="11" text-anchor="middle">rinseaid</text>
  <rect x="678" y="446" width="78" height="30" fill="#7f1d1d" rx="8"/>
  <text x="717" y="466" fill="#fca5a5" font-size="12" font-weight="600" text-anchor="middle">Revoke</text>

  <!-- ===== RECENT ACTIVITY SECTION ===== -->
  <text x="24" y="528" fill="#e2e8f0" font-size="15" font-weight="700">Recent Activity</text>

  <!-- Activity row 1 -->
  <rect x="24" y="542" width="752" height="36" fill="#1e293b" rx="8" stroke="#334155" stroke-width="1"/>
  <rect x="40" y="553" width="64" height="18" fill="#14532d" rx="4"/>
  <text x="72" y="565" fill="#34d399" font-size="11" font-weight="600" text-anchor="middle">Approved</text>
  <text x="130" y="565" fill="#e2e8f0" font-size="12">docker</text>
  <text x="280" y="565" fill="#94a3b8" font-size="11" font-family="monospace, monospace">ABCDEF-123456</text>
  <text x="700" y="565" fill="#94a3b8" font-size="11" text-anchor="end">2 min ago</text>

  <!-- Activity row 2 -->
  <rect x="24" y="582" width="752" height="36" fill="#1e293b" rx="8" stroke="#334155" stroke-width="1"/>
  <rect x="40" y="593" width="90" height="18" fill="#1e3a5f" rx="4"/>
  <text x="85" y="605" fill="#60a5fa" font-size="11" font-weight="600" text-anchor="middle">Auto-approved</text>
  <text x="155" y="605" fill="#e2e8f0" font-size="12">plex</text>
  <text x="280" y="605" fill="#94a3b8" font-size="11" font-family="monospace, monospace">MNOPQR-345678</text>
  <text x="700" y="605" fill="#94a3b8" font-size="11" text-anchor="end">18 min ago</text>
</svg>
